<!--?xml version="1.0" encoding="utf-8"?-->
<!-- Generator: Adobe Illustrator 18.1.1, SVG Export Plug-In . SVG Version: 6.00 Build 0)  -->

<svg version="1.1" id="_x32_" xmlns="http://www.w3.org/2000/svg" xmlns:xlink="http://www.w3.org/1999/xlink" x="0px" y="0px" viewBox="0 0 512 512" style="width: 64px; height: 64px; opacity: 1;" xml:space="preserve">
<style type="text/css">
	.st0{fill:#4B4B4B;}
</style>
<g>
	<path class="st0" d="M432.697,128.286l-48.974-48.982L304.403,0l-53.286,53.286l11.677,37.349l-107.645,80.487L83.47,146.428
		L3.622,221.02l125.312,125.303L4.253,471.013L0,512l40.978-4.253l124.69-124.681L290.98,508.378l74.584-79.848l-24.677-71.679
		l80.47-107.645l37.357,11.668L512,207.588L432.697,128.286z M448.298,218.539l-41.013-12.818L299.182,350.326l23.804,69.138
		l-32.914,35.239L173.68,338.319L57.297,221.928l35.24-32.914l69.138,23.803l144.604-108.111L293.46,63.702l10.943-10.942
		l52.94,52.931l48.964,48.974l52.933,52.923L448.298,218.539z"></path>
</g>
</svg>
